<svg xmlns="http://www.w3.org/2000/svg" viewBox="0 0 1024 1024"><defs><linearGradient id="wfg" x1="0" y1="1" x2="0" y2="0"><stop offset="0" stop-color="#ff2d55"/><stop offset=".6" stop-color="#ff9f0a"/><stop offset="1" stop-color="#ffd60a"/></linearGradient></defs><g transform="translate(512 512) scale(0.64) translate(-512 -478)"><g>
<rect x="150" y="248" width="724" height="40" rx="20" fill="#fff"/>
<rect x="150" y="176" width="62" height="184" rx="24" fill="#fff"/><rect x="226" y="204" width="38" height="128" rx="16" fill="#fff"/>
<rect x="812" y="176" width="62" height="184" rx="24" fill="#fff"/><rect x="760" y="204" width="38" height="128" rx="16" fill="#fff"/>
<path d="M310 318 L408 780 L512 572 L616 780 L714 318" fill="none" stroke="url(#wfg)" stroke-width="104" stroke-linecap="round" stroke-linejoin="round"/>
<g transform="translate(512 462) scale(0.46) translate(-512 -300)"><path d="M512 96 C566 170 650 226 650 344 C650 430 588 490 512 490 C436 490 374 430 374 344 C374 282 410 238 440 212 C444 270 466 302 498 314 C476 246 486 168 512 96 Z" fill="#fff"/></g>
</g></g></svg>
